<svg xmlns="http://www.w3.org/2000/svg" xmlns:xlink="http://www.w3.org/1999/xlink" xmlns:serif="http://www.serif.com/" width="100%" height="100%" viewBox="0 0 1160 178" version="1.1" xml:space="preserve" style="fill-rule:evenodd;clip-rule:evenodd;stroke-linejoin:round;stroke-miterlimit:2;"><path d="M335.462,177.181l-26.083,0l-0,-113.032l-39.083,0l-0,-25.952l39.083,-0l-0,-38.197l26.083,0l-0,38.197l91.253,-0l0,25.952l-91.253,0l-0,113.032Zm-71.783,0l-6.491,0c-6.356,0 -12.292,-1.191 -17.808,-3.55c-5.517,-2.386 -10.352,-5.606 -14.5,-9.665c-4.169,-4.153 -7.436,-9.004 -9.817,-14.499c-2.364,-5.606 -3.555,-11.542 -3.555,-17.809l0,-131.658l26.083,0l0,131.658c0,2.712 0.509,5.25 1.526,7.635c1.034,2.271 2.428,4.326 4.211,6.089c1.767,1.788 3.865,3.178 6.225,4.195c2.385,1.038 4.923,1.542 7.635,1.542l6.491,0l0,26.062Zm-87.684,0.003l-130.311,0c-6.355,0 -12.292,-1.19 -17.813,-3.55c-5.516,-2.386 -10.347,-5.606 -14.52,-9.665c-4.148,-4.152 -7.415,-9.004 -9.796,-14.499c-2.36,-5.606 -3.555,-11.542 -3.555,-17.809c-0,-6.355 1.195,-12.291 3.555,-17.812c2.381,-5.517 5.648,-10.347 9.796,-14.495c4.173,-4.153 9.004,-7.415 14.52,-9.801c5.521,-2.36 11.458,-3.55 17.813,-3.55l91.118,-0l0,26.062l-91.118,-0c-2.716,-0 -5.254,0.551 -7.635,1.653c-2.385,1.016 -4.462,2.427 -6.245,4.194c-1.767,1.788 -3.178,3.86 -4.195,6.246c-1.017,2.359 -1.521,4.876 -1.521,7.503c-0,2.712 0.504,5.25 1.521,7.636c1.017,2.271 2.428,4.326 4.195,6.088c1.783,1.788 3.86,3.178 6.245,4.195c2.381,1.038 4.919,1.542 7.635,1.542l104.228,0l-0,-71.61c-0,-2.623 -0.555,-5.14 -1.657,-7.504c-1.017,-2.381 -2.428,-4.458 -4.195,-6.242c-1.788,-1.766 -3.86,-3.177 -6.245,-4.194c-2.382,-1.102 -4.877,-1.657 -7.5,-1.657l-104.227,0l-0,-25.952l104.227,0c6.356,0 12.292,1.195 17.808,3.576c5.517,2.36 10.347,5.627 14.521,9.8c4.148,4.06 7.415,8.848 9.796,14.364c2.364,5.517 3.555,11.453 3.555,17.809l-0,97.672Zm259.424,-15.117c0,-4.173 0.042,-8.343 -0.023,-12.491c-0.045,-2.165 0.84,-3.025 3.022,-3.025c8.211,0.068 16.418,0.046 24.631,-0c2.159,-0 2.978,0.907 2.978,3.068c-0.088,8.211 -0.088,16.397 0,24.608c0,2.204 -0.84,2.979 -2.999,2.932c-8.213,-0.042 -16.42,-0.042 -24.63,0.022c-2.142,0.025 -3.047,-0.814 -3.002,-3c0.065,-4.038 0.023,-8.076 0.023,-12.114Z" style="fill:#f37529;"/><path d="M560.119,99.748l-29.255,-0l-0,-25.577l29.256,-0l-0.001,25.577Zm-0,0l13.186,0.001l0,-25.602l-13.188,-0l0,-28.225l13.771,-0l-0,13.278l13.744,0l-0,-13.278l-13.744,-0l-0,-13.283l8.444,0l-0,-32.571l82.658,-0.068c43.444,0 78.782,34.132 78.782,76.089l-0,25.153c-0,41.952 -35.338,76.063 -78.782,76.063l-94.492,0c-5.723,0 -10.381,-4.632 -10.381,-10.36l0.002,-67.197Zm34.176,-87.158l0,13.055l13.57,0l-0,-13.055l-13.57,-0Zm114.941,88.319l-0,-24.486c-0,-24.777 -20.898,-44.964 -46.564,-44.964l-71.917,-0l-0,62.318l-10.006,0l0,12.723l10.006,-0l-0,39.368l71.917,0c25.666,0 46.564,-20.187 46.564,-44.959Zm-135.357,-100.84l-0,32.576l-34.332,-0l0,-32.576l20.57,-0l0,-0.069l13.762,0.069Zm-43.015,40.393l-27.068,-0l-0,-26.133l27.071,-0l-0,26.124l17.378,0l0,16.799l-17.381,0l-0,-16.79Zm0.006,16.798l-0,16.777l-17.382,0l-0,-16.777l17.382,0Zm404.805,10.624c-0,0.004 -0,0.021 -0,0.025c-0.013,27.419 -20.779,49.796 -47.378,52.901l57.011,56.5l-52.684,0l-54.987,-55.878l-48.511,-0l0,55.878l-33.063,0l0,-55.878l-0.18,-0l0,-111.088c0,-5.701 4.64,-10.341 10.343,-10.341l126.2,-0c23.9,-0 43.249,19.352 43.249,43.229l-0,24.652Zm-146.371,20.153l92.827,-0c11.117,-0 20.129,-9.033 20.129,-20.128l0,-24.677c0,-5.416 -4.419,-9.809 -9.834,-9.809l-103.122,0l-0,54.614Zm370.074,-88.037l-80.766,88.837l80.275,88.469l-48.498,0l-56.109,-61.731l-56.031,61.731l-48.641,0l80.337,-88.491l-80.76,-88.815l48.641,0l56.454,62.06l55.073,-60.544l1.358,-1.516l48.667,0Z" style="fill:#2e3192;"/></svg>